 http://img402.imageshack.us/img402/9339/zombiechrist2010.jpg

Country.......: USA
Genre.........: Horror, Psychical, Erotic
Date release..: 2010 [World]
Director......: Bill Zebub
Writers.......: Bill Zebub
Duration......: 112 min.
More..........: http://www.imdb.com/title/tt1777642
Trailer.......:

Pilot :
Group psychos, people get sick glare. They agree to revive the remains of Jesus Christ, goes to them but wakes up beast. Unpleasant scene, I advise you to eat before viewing.

Cats :
Eidolona   	 ...  	First victim
Jessica Alexandra Green 	... 	Mary
Rob Hauschild 	... 	Squeamish boyfriend
Ruby Larocca 	... 	Swimmer
Jordana Leigh 	... 	Nun
Steve Nebesni 	... 	Priest
Kathy Rice 	... 	Fisted woman
Bill Zebub 	... 	Jesus 

Data Technical :
!!! SAMPLE !!!
Audio.....: English
Subtitles.: None
Format                           : AVI
Format/Info                      : Audio Video Interleave
File size                        : 699 MiB
Duration                         : 1h 51mn
Overall bit rate                 : 874 Kbps
Writing application              : VirtualDubMod 1.5.4.1 (build 2178/release)
Writing library                  : VirtualDubMod build 2178/release
Video
ID                               : 0
Format                           : MPEG-4 Visual
Format profile                   : Advanced Simple@L5
Format settings, BVOP            : Yes
Format settings, QPel            : No
Format settings, GMC             : No warppoints
Format settings, Matrix          : Custom
Codec ID                         : XVID
Codec ID/Hint                    : XviD
Duration                         : 1h 51mn
Bit rate                         : 739 Kbps
Width                            : 720 pixels
Height                           : 544 pixels
Display aspect ratio             : 4:3
Frame rate                       : 23.976 fps
Color space                      : YUV
Chroma subsampling               : 4:2:0
Bit depth                        : 8 bits
Scan type                        : Progressive
Bits/(Pixel*Frame)               : 0.079
Stream size                      : 591 MiB (85%)
Writing library                  : XviD 1.2.1 (UTC 2008-12-04)
Audio
ID                               : 1
Format                           : MPEG Audio
Format version                   : Version 1
Format profile                   : Layer 3
Mode                             : Joint stereo
Mode extension                   : MS Stereo
Codec ID                         : 55
Codec ID/Hint                    : MP3
Duration                         : 1h 51mn
Bit rate mode                    : Constant
Bit rate                         : 128 Kbps
Channel(s)                       : 2 channels
Sampling rate                    : 48.0 KHz
Stream size                      : 102 MiB (15%)
Alignment                        : Aligned on interleaves
Interleave, duration             : 83 ms (2.00 video frames)
Interleave, preload duration     : 504 ms
Writing library                  : LAME3.98r
Encoding settings                : -m j -V 4 -q 2 -lowpass 17 -b 128

Screen : 
http://img830.imageshack.us/img830/4561/zombiechrist2010s1.jpg 
http://img843.imageshack.us/img843/5213/zombiechrist2010s2.jpg 
http://img852.imageshack.us/img852/3637/zombiechrist2010s3.jpg 
http://img197.imageshack.us/img197/9866/zombiechrist2010s4.jpg 
http://img402.imageshack.us/img402/8065/zombiechrist2010s5.jpg